<?xml version="1.0" encoding="UTF-8"?>
<svg version="1.1" xmlns="http://www.w3.org/2000/svg" width="389" height="433">
<path d="M0 0 C0.97163086 0.46744629 0.97163086 0.46744629 1.96289062 0.94433594 C29.23041282 14.21303237 53.16405059 35.62702016 71 60 C71.76828125 61.04671875 72.5365625 62.0934375 73.328125 63.171875 C91.37695573 88.5412105 103.44988822 116.48574912 110.3125 146.8125 C110.55516602 147.88459717 110.79783203 148.95669434 111.04785156 150.0612793 C114.48344755 166.02562401 115.4102519 181.53650951 115.375 197.8125 C115.37412384 198.80311432 115.37324768 199.79372864 115.37234497 200.81436157 C115.32565884 216.8567825 114.50817819 232.28749196 111 248 C110.76394043 249.06589355 110.52788086 250.13178711 110.28466797 251.22998047 C101.19784779 290.79367914 82.80366048 326.43557752 55 356 C54.4755127 356.55848633 53.95102539 357.11697266 53.41064453 357.69238281 C30.1548833 382.24930422 0.47819241 400.83707886 -32.3125 409.6875 C-33.00964111 409.87787842 -33.70678223 410.06825684 -34.42504883 410.2644043 C-49.19551461 414.04312549 -63.72485298 415.52777163 -78.9375 415.375 C-79.76861298 415.37034729 -80.59972595 415.36569458 -81.45602417 415.36090088 C-93.51476126 415.28184998 -105.25056874 414.95127894 -117 412 C-117.82097168 411.80132324 -118.64194336 411.60264648 -119.48779297 411.39794922 C-165.89036943 399.91131106 -205.38381008 371.81775005 -233 333 C-233.44537109 332.38334473 -233.89074219 331.76668945 -234.34960938 331.13134766 C-258.90449636 296.90867044 -273.84276204 252.88600085 -274.23828125 210.6640625 C-274.24802979 209.79514877 -274.25777832 208.92623505 -274.26782227 208.0309906 C-274.44317412 188.33908734 -274.12883468 169.34367404 -270 150 C-269.80744629 149.08831055 -269.61489258 148.17662109 -269.41650391 147.23730469 C-268.15096152 141.42870832 -266.66957419 135.70498603 -265 130 C-264.78118164 129.24992676 -264.56236328 128.49985352 -264.33691406 127.72705078 C-251.39908131 84.37873887 -223.69044775 41.78651235 -186 16 C-185.35740234 15.5560791 -184.71480469 15.1121582 -184.05273438 14.65478516 C-163.4178054 0.52307388 -141.26848748 -8.98955858 -117 -15 C-116.26958496 -15.18224121 -115.53916992 -15.36448242 -114.78662109 -15.55224609 C-76.81201913 -24.47960866 -34.52718061 -16.84213176 0 0 Z " fill="#FCFBFC" transform="translate(274,18)"/>
<path d="M0 0 C0.55429688 0.32097656 1.10859375 0.64195313 1.6796875 0.97265625 C1.6796875 1.63265625 1.6796875 2.29265625 1.6796875 2.97265625 C2.55890869 3.24287598 3.43812988 3.5130957 4.34399414 3.79150391 C7.4949539 4.907243 10.15684785 6.2125392 13.05078125 7.87109375 C14.03755859 8.433125 15.02433594 8.99515625 16.04101562 9.57421875 C17.05615234 10.15945312 18.07128906 10.7446875 19.1171875 11.34765625 C20.12845703 11.92515625 21.13972656 12.50265625 22.18164062 13.09765625 C25.73891718 15.13038571 29.29360025 17.16733532 32.83618164 19.22558594 C35.60699383 20.82987556 38.28333879 22.22682521 41.2421875 23.47265625 C44.70309518 24.98287051 47.54691715 26.88414268 50.6796875 28.97265625 C52.90571365 29.74205306 52.90571365 29.74205306 54.6796875 29.97265625 C54.6796875 30.63265625 54.6796875 31.29265625 54.6796875 31.97265625 C55.5253125 32.24078125 56.3709375 32.50890625 57.2421875 32.78515625 C60.81822817 34.02051575 64.21829658 35.44964425 67.6796875 36.97265625 C67.6796875 37.63265625 67.6796875 38.29265625 67.6796875 38.97265625 C68.88625 39.31296875 68.88625 39.31296875 70.1171875 39.66015625 C73.76530378 41.00419909 76.89690568 42.69326877 80.23828125 44.65625 C82.7692556 46.07435362 82.7692556 46.07435362 85.93359375 47.3203125 C91.03530692 49.46013871 95.64744683 52.43247409 100.36328125 55.30078125 C104.70176969 57.90544339 108.97935563 60.0925235 113.6796875 61.97265625 C113.6796875 62.63265625 113.6796875 63.29265625 113.6796875 63.97265625 C114.5253125 64.24078125 115.3709375 64.50890625 116.2421875 64.78515625 C119.81822817 66.02051575 123.21829658 67.44964425 126.6796875 68.97265625 C126.6171875 70.78515625 126.6171875 70.78515625 125.6796875 72.97265625 C124.07020508 73.69781943 122.45500766 74.41212035 120.8180542 75.07293701 C116.68626088 76.81139185 112.73582917 78.93433172 108.75 80.98046875 C107.80140106 81.46538788 106.85280212 81.95030701 105.87545776 82.44992065 C103.86953925 83.47594105 101.86418944 84.50307396 99.859375 85.53125 C95.86467196 87.57968468 91.86670437 89.62171399 87.86897278 91.66423035 C84.96827091 93.1521844 82.07538231 94.65462824 79.18237305 96.1574707 C75.65337308 97.9838894 72.1025727 99.72835059 68.49926758 101.40307617 C67.70676605 101.78474945 66.91426453 102.16642273 66.0977478 102.55966187 C64.63941419 103.26045478 63.168701 103.9363227 61.68447876 104.58047485 C58.90630722 105.94484147 56.99006481 107.13778327 55.88883972 110.09992981 C54.94167693 115.14443533 55.1136222 119.88974 55.6796875 124.97265625 C50.13562286 124.45915576 46.23996393 122.33981087 41.4921875 119.66015625 C35.03819297 116.1327395 28.72519763 113.15499194 21.6796875 110.97265625 C20.81859375 110.68777344 19.9575 110.40289062 19.0703125 110.109375 C-5.79207433 102.16094527 -37.8372598 105.50288623 -61.15380859 116.86621094 C-63.9062776 118.30691421 -66.60786741 119.8321448 -69.30859375 121.3671875 C-73.08294377 123.3791951 -76.9286493 124.80189299 -80.98046875 126.1484375 C-83.65351661 127.03539048 -83.65351661 127.03539048 -87.3203125 128.97265625 C-87.8153125 120.06265625 -87.8153125 120.06265625 -88.3203125 110.97265625 C-89.6815625 110.53953125 -91.0428125 110.10640625 -92.4453125 109.66015625 C-103.82927557 105.84760258 -103.82927557 105.84760258 -106.3203125 101.97265625 C-107.0078125 98.84765625 -107.0078125 98.84765625 -106.3203125 94.97265625 C-101.83484676 87.98310937 -95.57687586 83.72605109 -88.3203125 79.97265625 C-87.38703125 79.47894531 -86.45375 78.98523438 -85.4921875 78.4765625 C-70.15689676 71.20551947 -53.69754686 69.58558493 -37.3203125 73.97265625 C-34.95485258 74.12514793 -32.69343656 74.07153642 -30.3203125 73.97265625 C-30.6503125 72.65265625 -30.9803125 71.33265625 -31.3203125 69.97265625 C-50.50194592 66.03796222 -70.79709179 64.35870731 -89.48046875 71.38671875 C-91.3203125 71.97265625 -91.3203125 71.97265625 -94.3203125 71.97265625 C-94.3203125 72.63265625 -94.3203125 73.29265625 -94.3203125 73.97265625 C-97.2903125 74.96265625 -100.2603125 75.95265625 -103.3203125 76.97265625 C-103.3203125 77.63265625 -103.3203125 78.29265625 -103.3203125 78.97265625 C-104.3515625 79.67390625 -105.3828125 80.37515625 -106.4453125 81.09765625 C-112.07258348 84.9557041 -116.27349817 90.4228504 -118.3203125 96.97265625 C-118.9803125 96.97265625 -119.6403125 96.97265625 -120.3203125 96.97265625 C-120.5884375 97.92140625 -120.8565625 98.87015625 -121.1328125 99.84765625 C-121.73322859 101.96829731 -122.35326341 104.0761049 -123.0222168 106.17626953 C-124.98296587 112.38584205 -126.3061911 118.54458065 -127.3203125 124.97265625 C-127.48909912 126.02138916 -127.65788574 127.07012207 -127.83178711 128.15063477 C-129.50462614 139.13848755 -130.4097768 150.18974619 -131.19335938 161.27148438 C-132.40543612 177.65359612 -132.40543612 177.65359612 -135.3203125 182.97265625 C-137.42407227 184.23022461 -137.42407227 184.23022461 -139.3203125 184.97265625 C-139.3203125 185.63265625 -139.3203125 186.29265625 -139.3203125 186.97265625 C-143.46029599 187.29736084 -145.66030251 187.40309755 -149.1953125 185.09765625 C-153.16766751 181.12530124 -152.72865344 177.26363278 -152.77783203 171.81860352 C-152.43404237 154.39342954 -146.89570145 136.96684558 -140.3203125 120.97265625 C-139.39504541 118.46140135 -138.51561013 115.93696622 -137.6328125 113.41015625 C-136.01565346 108.84467189 -134.28664743 104.39690984 -132.3203125 99.97265625 C-131.8253125 98.48765625 -131.8253125 98.48765625 -131.3203125 96.97265625 C-130.6603125 96.97265625 -130.0003125 96.97265625 -129.3203125 96.97265625 C-129.30123133 94.07509846 -129.30123133 94.07509846 -130.3203125 90.97265625 C-133.26904425 88.94109164 -133.26904425 88.94109164 -136.8828125 87.59765625 C-138.08035156 87.09492187 -139.27789062 86.5921875 -140.51171875 86.07421875 C-141.43855469 85.71070312 -142.36539063 85.3471875 -143.3203125 84.97265625 C-143.3203125 84.31265625 -143.3203125 83.65265625 -143.3203125 82.97265625 C-144.02542969 82.87082031 -144.73054688 82.76898438 -145.45703125 82.6640625 C-148.73090895 81.87350813 -151.20615717 80.56741891 -154.1328125 78.91015625 C-155.10863281 78.36230469 -156.08445313 77.81445312 -157.08984375 77.25 C-157.82589844 76.82847656 -158.56195313 76.40695313 -159.3203125 75.97265625 C-158.9416217 73.56923197 -158.71951136 72.31213245 -156.83203125 70.70703125 C-156.23003906 70.3821875 -155.62804687 70.05734375 -155.0078125 69.72265625 C-154.41355469 69.3875 -153.81929687 69.05234375 -153.20703125 68.70703125 C-151.3203125 67.97265625 -151.3203125 67.97265625 -147.3203125 67.97265625 C-147.3203125 67.31265625 -147.3203125 66.65265625 -147.3203125 65.97265625 C-146.66804688 65.71871094 -146.01578125 65.46476562 -145.34375 65.203125 C-139.13752647 62.75908122 -133.25450696 60.06718702 -127.4453125 56.78515625 C-119.85505865 52.53868257 -112.00107289 48.78544718 -104.20898438 44.92724609 C-102.14105748 43.90245413 -100.07405726 42.87583546 -98.0078125 41.84765625 C-97.34201172 41.51636719 -96.67621094 41.18507812 -95.99023438 40.84375 C-91.20643297 38.44947403 -86.50455795 35.93100578 -81.84765625 33.296875 C-79.35990201 31.99339944 -76.82026041 30.91758588 -74.23217773 29.83178711 C-69.92950158 27.89830257 -65.83750276 25.50513659 -61.72460938 23.20117188 C-56.97153519 20.61525776 -52.62229824 19.07848191 -47.3203125 17.97265625 C-47.3203125 17.31265625 -47.3203125 16.65265625 -47.3203125 15.97265625 C-46.3303125 15.60140625 -46.3303125 15.60140625 -45.3203125 15.22265625 C-40.196979 13.08793396 -35.31772803 10.59555578 -30.5703125 7.72265625 C-27.3203125 5.97265625 -27.3203125 5.97265625 -23.3203125 5.97265625 C-23.3203125 5.31265625 -23.3203125 4.65265625 -23.3203125 3.97265625 C-16.13510234 -0.39146272 -8.23148501 -3.64458006 0 0 Z " fill="#151415" transform="translate(208.3203125,8.02734375)"/>
<path d="M0 0 C0.33 0 0.66 0 1 0 C0.85780436 2.20857055 0.71108153 4.41684987 0.5625 6.625 C0.48128906 7.85476562 0.40007812 9.08453125 0.31640625 10.3515625 C0 14 0 14 -0.50268555 16.64477539 C-1.13163068 20.88807089 -1.21938851 25.04763003 -1.2734375 29.33203125 C-1.28592026 30.2330809 -1.29840302 31.13413055 -1.31126404 32.06248474 C-1.52974036 51.62194235 -1.42318989 70.05325619 4 89 C4.19754883 89.74411133 4.39509766 90.48822266 4.59863281 91.25488281 C9.82485512 110.92317021 18.48507203 129.94352123 31 146 C31.40347656 146.52384277 31.80695313 147.04768555 32.22265625 147.58740234 C42.13960483 160.3437219 54.7125524 171.18646359 70 177 C70 177.66 70 178.32 70 179 C71.36125 179.37125 71.36125 179.37125 72.75 179.75 C79.28263323 181.61266528 85.71180284 183.84769061 92.12109375 186.09375 C94.51234629 186.84649164 96.52297076 187.2935809 99 187.5 C101.52039007 187.71003251 103.44971342 188.1556229 105.8671875 188.9921875 C111.43788914 190.7842586 117.18908887 190.7747811 123 191 C123.77279297 191.03399902 124.54558594 191.06799805 125.34179688 191.10302734 C137.31034355 191.57196205 147.56101812 190.47105707 159 187 C160.22589844 186.67644531 161.45179688 186.35289062 162.71484375 186.01953125 C170.22026645 184.02297472 177.07360018 181.49881122 184 178 C184.6384082 177.68401855 185.27681641 177.36803711 185.93457031 177.04248047 C212.69222563 163.73815208 232.54544016 144.18722034 243 116 C243.42667969 114.92492187 243.85335937 113.84984375 244.29296875 112.7421875 C247.81627035 103.57076242 249.87113137 94.29505193 251.54150391 84.62915039 C251.85084048 82.85532421 252.18714571 81.086019 252.54833984 79.32202148 C254.45567218 69.06226892 254.30219639 58.79299521 254.26074219 48.39038086 C254.25005775 45.20472014 254.26066644 42.0196276 254.2734375 38.83398438 C254.27948783 28.47349852 253.98389844 18.38946764 252.42871094 8.13793945 C252.05063189 5.37059893 251.91737654 2.78657454 252 0 C252.66 0 253.32 0 254 0 C259.41935443 18.25743678 261.24580407 35.52621539 261.3125 54.5625 C261.31545074 55.31413422 261.31840149 56.06576843 261.32144165 56.84017944 C261.34158927 79.66923461 258.79783322 103.44392081 251 125 C250.690625 126.010625 250.38125 127.02125 250.0625 128.0625 C248.94096004 131.16322812 247.52761477 133.97264251 246.01953125 136.8984375 C244.42715946 140.18079774 243.22644911 143.56594248 242 147 C241.34 147 240.68 147 240 147 C239.75894531 147.69222656 239.51789063 148.38445312 239.26953125 149.09765625 C229.6475821 171.0949123 206.84520468 189.29999 186 200 C185.01 200 184.02 200 183 200 C183 200.66 183 201.32 183 202 C182.09906616 202.31022095 182.09906616 202.31022095 181.17993164 202.62670898 C178.47307571 203.56064116 175.76777852 204.49900895 173.0625 205.4375 C172.11697266 205.76298828 171.17144531 206.08847656 170.19726562 206.42382812 C168.84858398 206.89272461 168.84858398 206.89272461 167.47265625 207.37109375 C166.64000244 207.65911865 165.80734863 207.94714355 164.94946289 208.24389648 C163.02666909 208.83880993 163.02666909 208.83880993 162 210 C127.81184278 217.55820658 95.51433779 211.30804532 65 195 C64.34 194.67 63.68 194.34 63 194 C63 193.34 63 192.68 63 192 C62.16597656 191.77957031 61.33195312 191.55914062 60.47265625 191.33203125 C56.22213353 189.70162827 53.03620076 187.43447613 49.4375 184.6875 C48.73931152 184.15697021 48.04112305 183.62644043 47.32177734 183.07983398 C31.92716573 171.13018267 19.28796798 156.1490135 10 139 C10 138.34 10 137.68 10 137 C9.34 137 8.68 137 8 137 C-0.33281744 119.94431834 -6.34749743 101.05307504 -7 82 C-7.66 82 -8.32 82 -9 82 C-9.79278585 31.5178362 -9.79278585 31.5178362 -2.91796875 11.68359375 C-1.60519474 7.84582463 -0.80768322 3.97110917 0 0 Z " fill="#312B7F" transform="translate(69,210)"/>
<path d="M0 0 C9.9 0 19.8 0 30 0 C31.920682 6.40227335 33.61108375 12.49278436 34.875 19 C36.3843586 26.51440657 38.24468293 33.86535428 40.42529297 41.21289062 C41.43258201 44.65967071 42 47.37329407 42 51 C42.66 51 43.32 51 44 51 C44.09667969 49.9378125 44.19335938 48.875625 44.29296875 47.78125 C45.03411895 41.87281616 46.71509767 36.22395572 48.3125 30.5 C48.94783667 28.18913773 49.58195299 25.87793959 50.21484375 23.56640625 C50.52147949 22.44766113 50.82811523 21.32891602 51.14404297 20.17626953 C52.61917239 14.70238653 53.95396338 9.19670082 55.2734375 3.68359375 C56 1 56 1 57 0 C66.9 0 76.8 0 87 0 C87 28.38 87 56.76 87 86 C80.4 86 73.8 86 67 86 C66.67 66.2 66.34 46.4 66 26 C61.37485992 41.87577928 61.37485992 41.87577928 57.3125 57.875 C57.11172852 58.72940674 56.91095703 59.58381348 56.70410156 60.46411133 C55.17734455 67.03518994 53.82434753 73.63210469 52.578125 80.26171875 C52 83 52 83 51 85 C45.39 85 39.78 85 34 85 C31.6660702 77.43484823 29.74592622 70.13769147 28.5625 62.3125 C27.20993547 53.42599778 24.99046386 44.87999493 22.57763672 36.22998047 C21.76623725 33.09755328 21.14788611 29.93112657 20.54711914 26.75219727 C20.27629517 25.88485962 20.27629517 25.88485962 20 25 C19.34 24.67 18.68 24.34 18 24 C18 44.13 18 64.26 18 85 C12.06 85 6.12 85 0 85 C0 56.95 0 28.9 0 0 Z " fill="#DF1F1F" transform="translate(106,222)"/>
<path d="M0 0 C42 0 42 0 56 4 C66.85313619 14.85313619 72.07638891 24.29824542 72.31469727 39.82495117 C72.30963903 45.98306726 72.21040964 51.93811107 71 58 C70.34 58 69.68 58 69 58 C68.690625 59.9490625 68.690625 59.9490625 68.375 61.9375 C66.61321815 69.61211134 62.91579397 75.13027271 56.25 79.375 C39.02331795 89.39460079 19.45880003 85 0 85 C0 56.95 0 28.9 0 0 Z " fill="#DE2222" transform="translate(209,222)"/>
<path d="M0 0 C0.66 0 1.32 0 2 0 C1.50341703 5.66104589 0.45489316 9.87674471 -2 15 C-2.66 15 -3.32 15 -4 15 C-4.66 17.64 -5.32 20.28 -6 23 C-6.66 23 -7.32 23 -8 23 C-8.25523437 23.88171875 -8.51046875 24.7634375 -8.7734375 25.671875 C-10.02089658 29.05670027 -11.46598491 31.37704765 -13.625 34.25 C-14.33785156 35.19875 -15.05070313 36.1475 -15.78515625 37.125 C-16.51605469 38.07375 -17.24695313 39.0225 -18 40 C-18.67933594 40.886875 -19.35867188 41.77375 -20.05859375 42.6875 C-38.74226194 66.57928623 -67.9731628 82.16199793 -98 86 C-102.72794835 86.21026454 -107.45528419 86.18509908 -112.1875 86.1875 C-114.06405273 86.20586914 -114.06405273 86.20586914 -115.97851562 86.22460938 C-127.83333579 86.24312289 -138.21529603 84.71825948 -149.25 80.375 C-150.10207031 80.05015625 -150.95414062 79.7253125 -151.83203125 79.390625 C-153.892078 78.60364085 -155.94767935 77.80686774 -158 77 C-158 76.34 -158 75.68 -158 75 C-159.03060547 74.87818359 -159.03060547 74.87818359 -160.08203125 74.75390625 C-163.74765787 73.80683003 -166.57204981 72.00805376 -169.6875 69.9375 C-170.30616943 69.53120361 -170.92483887 69.12490723 -171.56225586 68.70629883 C-183.97855055 60.44325713 -195.80400831 50.36420431 -205.37109375 38.87890625 C-207.87113949 35.99516045 -210.63544579 33.39136144 -213.3984375 30.76171875 C-215 29 -215 29 -216 26 C-212.30548816 27.54931141 -209.96669932 29.83512498 -207.125 32.625 C-201.02431184 38.30466638 -194.35562666 42.15574548 -187 46 C-187 46.66 -187 47.32 -187 48 C-186.19949219 48.23783203 -186.19949219 48.23783203 -185.3828125 48.48046875 C-181.14010338 49.80906797 -177.19804348 51.32331183 -173.25 53.375 C-169.47269663 55.30445589 -165.67352566 57.07333107 -161.75 58.6875 C-160.79609375 59.08324219 -159.8421875 59.47898437 -158.859375 59.88671875 C-134.14309407 68.03451483 -103.75483325 64.64186172 -80.72265625 53.46484375 C-64.55506075 45.24661298 -53.52651717 33.61951839 -44.30859375 18.1640625 C-43.81488281 17.34679687 -43.32117188 16.52953125 -42.8125 15.6875 C-42.40644531 14.96949219 -42.00039063 14.25148438 -41.58203125 13.51171875 C-40 12 -40 12 -37.0859375 11.51953125 C-33.29911577 12.10912501 -32.33691743 13.18749625 -29.8125 16 C-26.36160922 19.27049008 -24.16761852 20.65147595 -19.375 20.875 C-14.84590105 20.47129202 -11.86902827 19.4901081 -8.63671875 16.265625 C-5.02363814 11.26422463 -2.52672122 5.6064027 0 0 Z " fill="#2E277F" transform="translate(309,309)"/>
<path d="M0 0 C0.90234375 0.43828125 1.8046875 0.8765625 2.734375 1.328125 C30.34045988 15.52108389 52.91713064 42.05397727 62.83544922 71.47851562 C67.55530834 86.29294968 70.46013954 100.38081894 70 116 C69.01 116.33 68.02 116.66 67 117 C66.63648438 115.69289062 66.63648438 115.69289062 66.265625 114.359375 C55.14613715 74.84242586 37.70352404 41.87800002 1 21 C-6.1481019 17.06512147 -13.26793988 13.55410359 -21.20703125 11.5078125 C-23 11 -23 11 -24 10 C-51.03048054 3.90177659 -79.77787809 5.57518412 -104 20 C-119.82343391 30.30580625 -132.44811778 42.3203896 -142.8125 58.1875 C-143.18592529 58.75766846 -143.55935059 59.32783691 -143.9440918 59.9152832 C-146.41486308 63.79840457 -148.26297193 67.7452571 -150 72 C-150.80698883 73.77335162 -151.61916339 75.5443563 -152.4375 77.3125 C-153.29541818 79.20663862 -154.149647 81.10245303 -155 83 C-155.37640625 83.83917969 -155.7528125 84.67835938 -156.140625 85.54296875 C-158.41479395 90.88047722 -159.67259015 95.89269839 -160.41015625 101.65234375 C-161.08513691 104.33885618 -161.77112754 105.38045958 -164 107 C-164.99 107 -165.98 107 -167 107 C-167.52271538 95.95037767 -166.52318047 86.61344397 -163 76 C-162.79101074 75.35562988 -162.58202148 74.71125977 -162.36669922 74.04736328 C-152.14570858 42.98627038 -130.23721516 17.74862334 -101.8671875 1.7421875 C-100 1 -100 1 -96 1 C-96 0.34 -96 -0.32 -96 -1 C-64.24373172 -13.77318899 -31.29853966 -15.55326204 0 0 Z " fill="#302A7F" transform="translate(246,137)"/>
<path d="M0 0 C15.74433657 0 15.74433657 0 21 4 C26.77638049 9.92449281 26.20869057 15.90120791 26.25 23.75 C26.270625 24.71421875 26.29125 25.6784375 26.3125 26.671875 C26.36209912 35.79811334 24.728664 40.83917 19 48 C12.73 48 6.46 48 0 48 C0 32.16 0 16.32 0 0 Z " fill="#FEF9F8" transform="translate(232,240)"/>
<path d="M0 0 C3.84941389 2.86819074 3.84941389 2.86819074 5 6 C5.58820808 10.57101456 5.45934015 14.62197955 4 19 C1.75510177 21.53456252 -0.01801897 22.82263068 -3.37890625 23.4296875 C-7.95744931 23.66168521 -10.25475833 23.55893125 -14 20.75 C-17.78546342 15.5449878 -18.9805498 11.42673604 -18 5 C-13.67673736 -0.96312089 -6.81602796 -1.00499098 0 0 Z " fill="#DE2A2A" transform="translate(306,280)"/>
<path d="M0 0 C0.66 0 1.32 0 2 0 C7.30843633 17.88376123 9.18731389 34.69044407 9.18530273 53.2956543 C9.18750129 55.56382715 9.20578402 57.83152101 9.22460938 60.09960938 C9.25739767 68.94632341 8.68314721 77.28673311 7 86 C6.67 86 6.34 86 6 86 C5.505 83.03 5.505 83.03 5 80 C4.34 80 3.68 80 3 80 C2.01 84.29 1.02 88.58 0 93 C-1.16203152 88.35187391 -0.41653245 84.86634973 0.41796875 80.265625 C2.20190583 69.44193283 2.4250448 58.81231599 2.33618164 47.86230469 C2.3124138 44.73867177 2.31567451 41.6158893 2.32226562 38.4921875 C2.30679523 28.25422137 1.95361206 18.28372353 0.42651367 8.15332031 C0.05157097 5.38127686 -0.08248906 2.79082501 0 0 Z " fill="#2A2274" transform="translate(321,210)"/>
<path d="M0 0 C9.9 0 19.8 0 30 0 C30 28.38 30 56.76 30 86 C23.4 86 16.8 86 10 86 C9.97494385 84.19289551 9.9498877 82.38579102 9.92407227 80.52392578 C9.84025814 74.56073298 9.75198874 68.59762016 9.66066074 62.63453865 C9.60543946 59.0182718 9.55202076 55.40199685 9.50268555 51.78564453 C9.45503022 48.29724878 9.40268704 44.8089523 9.34705925 41.3206749 C9.31668768 39.33867812 9.29120213 37.35660845 9.26576233 35.37454224 C9.24581711 34.17344818 9.22587189 32.97235413 9.20532227 31.73486328 C9.18200584 30.14268478 9.18200584 30.14268478 9.15821838 28.51834106 C9.16470819 26.00420764 9.16470819 26.00420764 8 24 C9.32 24 10.64 24 12 24 C12 43.8 12 63.6 12 84 C17.28 84 22.56 84 28 84 C28 56.61 28 29.22 28 1 C18.76 1 9.52 1 0 1 C0 0.67 0 0.34 0 0 Z " fill="#E15A5A" transform="translate(163,222)"/>
<path d="M0 0 C3.23113684 1.87993416 5.46821356 3.2297579 6.58203125 6.9375 C6.76595955 9.1959684 6.65244307 10.82810898 6 13 C2.94854964 16.57242969 1.08575513 17.82856498 -3.5625 18.5625 C-7.70853452 17.88405799 -9.35275988 17.2889953 -12 14 C-12.72259546 10.85112873 -12.6900808 8.1530521 -12 5 C-8.67829664 0.0677738 -5.83102014 -1.02298599 0 0 Z " fill="#373183" transform="translate(293,304)"/>
<path d="M0 0 C0.33 0 0.66 0 1 0 C3.46059797 11.15978598 3.1865331 22.91358675 3.18530273 34.2956543 C3.18750129 36.56382715 3.20578402 38.83152101 3.22460938 41.09960938 C3.25739767 49.94632341 2.68314721 58.28673311 1 67 C0.67 67 0.34 67 0 67 C-0.33 65.02 -0.66 63.04 -1 61 C-1.66 61 -2.32 61 -3 61 C-3.99 65.29 -4.98 69.58 -6 74 C-7.16067291 69.35730836 -6.43187434 65.86374357 -5.60546875 61.265625 C-3.65977315 49.4379639 -3.44396724 37.7125727 -3.3125 25.75 C-3.27921539 23.62498053 -3.24471614 21.49997973 -3.20898438 19.375 C-3.12538584 14.25010604 -3.05799383 9.12524499 -3 4 C-2.67 4 -2.34 4 -2 4 C-1.67 18.52 -1.34 33.04 -1 48 C-0.67 48 -0.34 48 0 48 C2.04251179 36.76618513 0.9218837 25.09525076 0.5 13.75 C0.45162668 12.40755914 0.40344854 11.06511123 0.35546875 9.72265625 C0.23888747 6.48169666 0.12036238 3.24082099 0 0 Z " fill="#6F6AA4" transform="translate(327,229)"/>
<path d="M0 0 C0.33 0 0.66 0 1 0 C0.85780436 2.20857055 0.71108153 4.41684987 0.5625 6.625 C0.48128906 7.85476562 0.40007812 9.08453125 0.31640625 10.3515625 C0 14 0 14 -0.5 16.74023438 C-1.06649127 20.4334919 -1.22623207 24.07703539 -1.31640625 27.8046875 C-1.33718735 28.5286673 -1.35796844 29.25264709 -1.37937927 29.99856567 C-1.44428853 32.29062239 -1.50348437 34.58278474 -1.5625 36.875 C-1.60574112 38.43751053 -1.64935711 40.00001072 -1.69335938 41.5625 C-1.79990896 45.37489426 -1.90133795 49.1873938 -2 53 C-2.33 53 -2.66 53 -3 53 C-3.33 45.41 -3.66 37.82 -4 30 C-4.66 30 -5.32 30 -6 30 C-6.5112414 23.48167218 -5.05579283 18.39448669 -3.0234375 12.2109375 C-1.7373172 8.17585776 -0.84355059 4.14745708 0 0 Z " fill="#4D478D" transform="translate(69,210)"/>
<path d="M0 0 C0.33 0 0.66 0 1 0 C1 19.8 1 39.6 1 60 C0.67 60 0.34 60 0 60 C-0.33 43.83 -0.66 27.66 -1 11 C-1.33 12.32 -1.66 13.64 -2 15 C-2.66 15 -3.32 15 -4 15 C-3.71743908 13.06115111 -3.4236207 11.12394039 -3.125 9.1875 C-2.96257812 8.10855469 -2.80015625 7.02960938 -2.6328125 5.91796875 C-2 3 -2 3 0 0 Z " fill="#FEE9E7" transform="translate(172,247)"/>
<path d="M0 0 C0 6.27 0 12.54 0 19 C-0.66 18.34 -1.32 17.68 -2 17 C-2.33 20.3 -2.66 23.6 -3 27 C-3.33 27 -3.66 27 -4 27 C-4 18.42 -4 9.84 -4 1 C-1 0 -1 0 0 0 Z " fill="#262077" transform="translate(66,239)"/>
<path d="M0 0 C0.33 0 0.66 0 1 0 C1.05402274 2.10388569 1.09280256 4.20816714 1.125 6.3125 C1.14820313 7.48425781 1.17140625 8.65601563 1.1953125 9.86328125 C1 13 1 13 -1 16 C-1 15.34 -1 14.68 -1 14 C-1.66 14 -2.32 14 -3 14 C-3.66 15.98 -4.32 17.96 -5 20 C-5.33 20 -5.66 20 -6 20 C-4.63636364 7.27272727 -4.63636364 7.27272727 -2 2 C-1.34 2 -0.68 2 0 2 C0 1.34 0 0.68 0 0 Z " fill="#282178" transform="translate(326,288)"/>
<path d="M0 0 C0.99 0.33 1.98 0.66 3 1 C2.83923477 1.54460876 2.67846954 2.08921753 2.51283264 2.65032959 C1.92406239 5.34792705 1.8382162 7.83314383 1.79467773 10.59472656 C1.77473251 11.71558655 1.75478729 12.83644653 1.73423767 13.99127197 C1.70916893 15.79770172 1.70916893 15.79770172 1.68359375 17.640625 C1.66281265 18.87794373 1.64203156 20.11526245 1.62062073 21.39007568 C1.56634128 24.67138691 1.51608221 27.95272733 1.46777344 31.23413086 C1.41743908 34.58583104 1.3617364 37.9374372 1.30664062 41.2890625 C1.19955491 47.85930464 1.09776964 54.42961298 1 61 C0.67 61 0.34 61 0 61 C0 40.87 0 20.74 0 0 Z " fill="#FDD8D7" transform="translate(124,246)"/>
<path d="M0 0 C4.2504648 6.3756972 4.29229358 12.63318646 4.1875 20.0625 C4.18685547 20.93455078 4.18621094 21.80660156 4.18554688 22.70507812 C4.15462731 27.24338292 3.91634254 31.53557916 3 36 C2.67 36 2.34 36 2 36 C1.34 24.12 0.68 12.24 0 0 Z " fill="#E06163" transform="translate(277,244)"/>
<path d="M0 0 C0.66 0.33 1.32 0.66 2 1 C-4.27 7.27 -10.54 13.54 -17 20 C-17.66 19.67 -18.32 19.34 -19 19 C-13.0763504 12.14630879 -6.85369121 5.9236496 0 0 Z " fill="#D5D4E8" transform="translate(130,164)"/>
<path d="M0 0 C0.33 0 0.66 0 1 0 C0.50610812 8.78607656 -0.36822681 17.35001785 -2 26 C-5.40276746 20.33747964 -3.70010514 13.98465877 -2.2578125 7.8359375 C-1.54528116 5.20975056 -0.79985476 2.60078562 0 0 Z " fill="#413B80" transform="translate(69,210)"/>
<path d="M0 0 C3.88237008 1.61918752 6.56064882 4.1586609 9.625 7 C11.06746094 8.3303125 11.06746094 8.3303125 12.5390625 9.6875 C14.04625993 11.10378711 15.53755115 12.53755115 17 14 C16.01 14 15.02 14 14 14 C13.67 14.66 13.34 15.32 13 16 C10.6622484 13.33717643 8.33005308 10.66956181 6 8 C5.40574219 7.32195312 4.81148438 6.64390625 4.19921875 5.9453125 C0 1.11470764 0 1.11470764 0 0 Z " fill="#3C3882" transform="translate(93,335)"/>
<path d="M0 0 C-0.33 3.63 -0.66 7.26 -1 11 C-1.66 10.01 -2.32 9.02 -3 8 C-4.32 8.99 -5.64 9.98 -7 11 C-7.33 10.01 -7.66 9.02 -8 8 C-8.33 8.99 -8.66 9.98 -9 11 C-8.67 8.03 -8.34 5.06 -8 2 C-7.34 3.32 -6.68 4.64 -6 6 C-5.731875 5.195625 -5.46375 4.39125 -5.1875 3.5625 C-4.795625 2.716875 -4.40375 1.87125 -4 1 C-1 0 -1 0 0 0 Z " fill="#4C488F" transform="translate(327,301)"/>
<path d="M0 0 C0.66 0 1.32 0 2 0 C2.69969682 2.24623699 3.38435043 4.49716414 4.0625 6.75 C4.63677734 8.62945312 4.63677734 8.62945312 5.22265625 10.546875 C5.92656828 13.6738008 6.16653785 15.09466046 5 18 C4.67 17.01 4.34 16.02 4 15 C3.67 16.98 3.34 18.96 3 21 C2.67 21 2.34 21 2 21 C1.66280953 18.43795456 1.33012847 15.87545682 1 13.3125 C0.90460938 12.59126953 0.80921875 11.87003906 0.7109375 11.12695312 C0.23316265 7.39007129 -0.11919794 3.77708469 0 0 Z " fill="#68629A" transform="translate(321,210)"/>
<path d="M0 0 C0.66 0 1.32 0 2 0 C1.50341703 5.66104589 0.45489316 9.87674471 -2 15 C-2.66 14.34 -3.32 13.68 -4 13 C-4.99 13.495 -4.99 13.495 -6 14 C-4.16508812 9.25981099 -2.08058541 4.63586749 0 0 Z " fill="#817CA7" transform="translate(309,309)"/>
<path d="M0 0 C0.66 1.32 1.32 2.64 2 4 C1.3503125 4.5878125 1.3503125 4.5878125 0.6875 5.1875 C-1.12512666 6.98638626 -1.12512666 6.98638626 -2.375 9.5 C-4.23372362 12.35957481 -5.99839562 13.45863559 -9 15 C-7.38325319 11.57053707 -5.42402323 8.43736948 -3.375 5.25 C-2.74335938 4.26515625 -2.11171875 3.2803125 -1.4609375 2.265625 C-0.97882813 1.51796875 -0.49671875 0.7703125 0 0 Z " fill="#443F89" transform="translate(307,339)"/>
<path d="M0 0 C1.85329634 2.77994451 2.68563605 4.78256551 3.625 7.9375 C3.88539063 8.79214844 4.14578125 9.64679688 4.4140625 10.52734375 C5 13 5 13 5 17 C4.34 17 3.68 17 3 17 C0.4084738 11.06108578 -0.40368295 6.45892714 0 0 Z " fill="#443F85" transform="translate(308,210)"/>
<path d="M0 0 C0.33 0 0.66 0 1 0 C1 3.63 1 7.26 1 11 C0.34 11 -0.32 11 -1 11 C-1.33 12.32 -1.66 13.64 -2 15 C-2.66 15 -3.32 15 -4 15 C-3.71743908 13.06115111 -3.4236207 11.12394039 -3.125 9.1875 C-2.96257812 8.10855469 -2.80015625 7.02960938 -2.6328125 5.91796875 C-2 3 -2 3 0 0 Z " fill="#FDE1DF" transform="translate(172,247)"/>
<path d="M0 0 C0.55429688 0.32097656 1.10859375 0.64195313 1.6796875 0.97265625 C0.6896875 1.46765625 0.6896875 1.46765625 -0.3203125 1.97265625 C-1.3103125 1.64265625 -2.3003125 1.31265625 -3.3203125 0.97265625 C-10.55565655 0.21104109 -15.09058325 2.39822144 -21.3203125 5.97265625 C-21.9803125 5.31265625 -22.6403125 4.65265625 -23.3203125 3.97265625 C-16.13510234 -0.39146272 -8.23148501 -3.64458006 0 0 Z " fill="#7B7B7B" transform="translate(208.3203125,8.02734375)"/>
<path d="M0 0 C0.33 0 0.66 0 1 0 C1 4.29 1 8.58 1 13 C0.01 13.33 -0.98 13.66 -2 14 C-2.66 11.03 -3.32 8.06 -4 5 C-2.68 5.33 -1.36 5.66 0 6 C0 4.02 0 2.04 0 0 Z " fill="#423D84" transform="translate(315,240)"/>
<path d="M0 0 C0.66 0.33 1.32 0.66 2 1 C1.35546875 1.48984375 0.7109375 1.9796875 0.046875 2.484375 C-2.72789277 5.89458577 -2.66800235 9.03084833 -2.75 13.25 C-2.79447266 14.36761719 -2.79447266 14.36761719 -2.83984375 15.5078125 C-2.9102343 17.33796672 -2.95741832 19.16898769 -3 21 C-3.99 20.67 -4.98 20.34 -6 20 C-5.34 20 -4.68 20 -4 20 C-4.04640625 18.80761719 -4.0928125 17.61523438 -4.140625 16.38671875 C-4.17814311 14.82033753 -4.21454323 13.25392924 -4.25 11.6875 C-4.30027344 10.50897461 -4.30027344 10.50897461 -4.3515625 9.30664062 C-4.38855392 7.13339453 -4.38367634 5.14030099 -4 3 C-1.984375 0.95703125 -1.984375 0.95703125 0 0 Z " fill="#CCCCCC" transform="translate(268,113)"/>
<path d="M0 0 C0.66 0.33 1.32 0.66 2 1 C-1.96 4.96 -5.92 8.92 -10 13 C-10 9.28115772 -9.1259934 8.63852271 -6.6875 5.9375 C-5.76517578 4.89916016 -5.76517578 4.89916016 -4.82421875 3.83984375 C-3 2 -3 2 0 0 Z " fill="#CECECD" transform="translate(103,87)"/>
<path d="M0 0 C0.33 0 0.66 0 1 0 C0.64989059 8.19256018 0.64989059 8.19256018 -2.0625 11.5625 C-2.701875 12.036875 -3.34125 12.51125 -4 13 C-3.71682074 11.39431334 -3.42312209 9.79047953 -3.125 8.1875 C-2.96257812 7.29417969 -2.80015625 6.40085938 -2.6328125 5.48046875 C-2 3 -2 3 0 0 Z " fill="#252428" transform="translate(74,180)"/>
<path d="M0 0 C0.33 0 0.66 0 1 0 C1 2.64 1 5.28 1 8 C0.34 8 -0.32 8 -1 8 C-1.33 9.65 -1.66 11.3 -2 13 C-3.18771723 9.57056481 -2.80226223 7.62215325 -1.5625 4.25 C-1.27503906 3.45078125 -0.98757812 2.6515625 -0.69140625 1.828125 C-0.46324219 1.22484375 -0.23507813 0.6215625 0 0 Z " fill="#E9726E" transform="translate(155,251)"/>
<path d="M0 0 C2.02350324 3.03525486 2.32124018 4.19426202 2.625 7.6875 C2.69976562 8.49574219 2.77453125 9.30398437 2.8515625 10.13671875 C2.90054688 10.75160156 2.94953125 11.36648437 3 12 C0.89366282 10.29171079 0.06198392 9.47851584 -0.29296875 6.73828125 C-0.25816406 5.93777344 -0.22335938 5.13726562 -0.1875 4.3125 C-0.16042969 3.50425781 -0.13335937 2.69601563 -0.10546875 1.86328125 C-0.07066406 1.24839844 -0.03585938 0.63351563 0 0 Z " fill="#E05B5F" transform="translate(136,224)"/>
<path d="M0 0 C0.66 0 1.32 0 2 0 C1.67 2.64 1.34 5.28 1 8 C0.34 7.34 -0.32 6.68 -1 6 C-1.99 6.495 -1.99 6.495 -3 7 C-1.125 2.25 -1.125 2.25 0 0 Z " fill="#635F96" transform="translate(306,316)"/>
<path d="M0 0 C0.66 0 1.32 0 2 0 C2.625 3.375 2.625 3.375 3 7 C2.34 7.66 1.68 8.32 1 9 C0.67 6.03 0.34 3.06 0 0 Z " fill="#6F6A9D" transform="translate(321,210)"/>
<path d="M0 0 C3.36720387 1.39332574 4.9859524 2.9789286 7 6 C6.01 6 5.02 6 4 6 C0 1.54285714 0 1.54285714 0 0 Z " fill="#696598" transform="translate(93,335)"/>
<path d="M0 0 C2.12508244 3.18762365 2.5020163 5.26512223 3 9 C2.01 9 1.02 9 0 9 C0 6.03 0 3.06 0 0 Z " fill="#504B8B" transform="translate(308,210)"/>
<path d="M0 0 C0.66 0.33 1.32 0.66 2 1 C-0.97 3.475 -0.97 3.475 -4 6 C-4.66 5.34 -5.32 4.68 -6 4 C-4.02 2.68 -2.04 1.36 0 0 Z " fill="#4C4B4B" transform="translate(141,34)"/>
</svg>
